<?xml version="1.0" encoding="iso-8859-1"?>
<!-- Uploaded to: SVG Repo, www.svgrepo.com, Generator: SVG Repo Mixer Tools -->
<svg version="1.1" id="Layer_1" xmlns="http://www.w3.org/2000/svg" xmlns:xlink="http://www.w3.org/1999/xlink" 
	 viewBox="0 0 512.001 512.001" xml:space="preserve">
<g>
	<rect x="58.084" y="208.008" style="fill:#66E6FF;" width="53.171" height="176.445"/>
	<rect x="172.3" y="208.008" style="fill:#66E6FF;" width="53.171" height="176.445"/>
	<rect x="286.527" y="208.008" style="fill:#66E6FF;" width="53.171" height="176.445"/>
	<rect x="400.755" y="208.008" style="fill:#66E6FF;" width="53.171" height="176.445"/>
</g>
<rect x="58.084" y="208.008" style="opacity:0.15;fill:#293133;enable-background:new    ;" width="53.171" height="33.248"/>
<rect x="45.385" y="176.224" style="fill:#2EC8E6;" width="78.558" height="42.874"/>
<rect x="58.084" y="351.217" style="opacity:0.15;fill:#293133;enable-background:new    ;" width="53.171" height="33.248"/>
<rect x="45.385" y="373.382" style="fill:#2EC8E6;" width="78.558" height="53.956"/>
<rect x="172.3" y="208.008" style="opacity:0.15;fill:#293133;enable-background:new    ;" width="53.171" height="33.248"/>
<rect x="159.611" y="176.224" style="fill:#2EC8E6;" width="78.558" height="42.874"/>
<rect x="172.3" y="351.217" style="opacity:0.15;fill:#293133;enable-background:new    ;" width="53.171" height="33.248"/>
<rect x="159.611" y="373.382" style="fill:#2EC8E6;" width="78.558" height="53.956"/>
<rect x="286.527" y="208.008" style="opacity:0.15;fill:#293133;enable-background:new    ;" width="53.171" height="33.248"/>
<rect x="273.838" y="176.224" style="fill:#2EC8E6;" width="78.558" height="42.874"/>
<rect x="286.527" y="351.217" style="opacity:0.15;fill:#293133;enable-background:new    ;" width="53.171" height="33.248"/>
<rect x="273.838" y="373.382" style="fill:#2EC8E6;" width="78.558" height="53.956"/>
<rect x="400.755" y="208.008" style="opacity:0.15;fill:#293133;enable-background:new    ;" width="53.171" height="33.248"/>
<rect x="388.054" y="176.224" style="fill:#2EC8E6;" width="78.558" height="42.874"/>
<rect x="400.755" y="351.217" style="opacity:0.15;fill:#293133;enable-background:new    ;" width="53.171" height="33.248"/>
<rect x="388.054" y="373.382" style="fill:#2EC8E6;" width="78.558" height="53.956"/>
<g>
	<path style="fill:#CCF7FF;" d="M506.963,166.339L302.912,27.318c-28.303-19.282-65.522-19.282-93.825,0L5.037,166.339
		c-9.337,6.361-4.834,20.965,6.463,20.965H500.5C511.797,187.304,516.299,172.7,506.963,166.339z"/>
	<path style="fill:#CCF7FF;" d="M465.648,416.252H46.353c-19.046,0-34.487,15.44-34.487,34.487l0,0v28.91h488.268v-28.911l0,0
		C500.134,431.692,484.694,416.252,465.648,416.252z"/>
</g>
<rect id="SVGCleanerId_0" x="0" y="474.875" style="opacity:0.15;fill:#293133;enable-background:new    ;" width="512.001" height="24.265"/>
<rect x="0" y="450.738" style="fill:#66E6FF;" width="512.001" height="48.407"/>
<g>
	
		<rect id="SVGCleanerId_0_1_" x="0" y="474.875" style="opacity:0.15;fill:#293133;enable-background:new    ;" width="512.001" height="24.265"/>
</g>
<circle style="fill:#2EC8E6;" cx="255.995" cy="104.93" r="33.815"/>
<path style="opacity:0.15;fill:#293133;enable-background:new    ;" d="M240.656,104.933c0-15.472,10.395-28.508,24.58-32.528
	c-2.937-0.832-6.032-1.288-9.235-1.288c-18.675,0-33.815,15.14-33.815,33.815c0,18.676,15.14,33.815,33.815,33.815
	c3.204,0,6.298-0.455,9.235-1.288C251.051,133.441,240.656,120.406,240.656,104.933z"/>
</svg>