<?xml version="1.0" encoding="iso-8859-1"?>
<!-- Uploaded to: SVG Repo, www.svgrepo.com, Generator: SVG Repo Mixer Tools -->
<!DOCTYPE svg PUBLIC "-//W3C//DTD SVG 1.1//EN" "http://www.w3.org/Graphics/SVG/1.1/DTD/svg11.dtd">
<svg fill="#000000" height="800px" width="800px" version="1.1" id="Capa_1" xmlns="http://www.w3.org/2000/svg" xmlns:xlink="http://www.w3.org/1999/xlink" 
	 viewBox="0 0 313.486 313.486" xml:space="preserve">
<g>
	<path d="M271.185,90.561c-0.639,0-1.263,0.062-1.878,0.15c-1.159-10.292-7.973-18.191-16.244-18.191
		c-2.723,0-5.285,0.87-7.546,2.385c0.086-0.783,0.144-1.576,0.144-2.385c0-10.902-8.04-19.724-17.977-19.724
		c-4.457,0-8.525,1.785-11.664,4.727c-1.313-12.218-11.706-21.736-24.337-21.736c-13.521,0-24.483,10.904-24.483,24.353
		c0,5.941,2.141,11.382,5.696,15.607c2.735,3.25,2.618,8.012-0.283,11.115c-0.002,0.002-0.004,0.004-0.006,0.006
		c-7.356,7.874-9.04,19.493-4.221,29.132l11.783,23.567c16.319,32.637,19.004,70.42,7.465,105.038l-5.013,15.038
		c-4.158,12.475-2.066,26.188,5.622,36.855c7.688,10.667,20.036,16.989,33.186,16.989c14.178,0,26.008-8.278,34.798-19.401
		c28.104-35.566,28.104-184.484,28.104-190.261C284.334,96.493,278.452,90.561,271.185,90.561z"/>
	<path d="M140.872,51.075c-2.901-3.103-3.018-7.865-0.283-11.115c3.555-4.225,5.696-9.667,5.696-15.608
		C146.286,10.904,135.323,0,121.803,0c-12.632,0-23.024,9.519-24.337,21.736c-3.14-2.942-7.207-4.727-11.664-4.727
		c-9.937,0-17.977,8.822-17.977,19.724c0,0.809,0.058,1.602,0.144,2.386c-2.261-1.516-4.822-2.386-7.546-2.386
		c-8.27,0-15.085,7.9-16.244,18.191c-0.615-0.089-1.238-0.15-1.878-0.15c-7.268,0-13.149,5.932-13.149,13.262
		c0,5.777,0,154.694,28.105,190.261c8.79,11.124,20.62,19.401,34.798,19.401c13.15,0,25.498-6.321,33.186-16.989
		c7.688-10.667,9.781-24.38,5.622-36.855l-5.013-15.038c-11.539-34.617-8.854-72.4,7.465-105.038l11.783-23.567
		c4.819-9.638,3.136-21.257-4.221-29.132C140.876,51.079,140.874,51.077,140.872,51.075z M46.114,170.194
		c-3.927-32.27-4.705-64.962-4.713-65.289c-0.094-4.141,3.186-7.573,7.327-7.668c4.167-0.083,7.575,3.187,7.669,7.327
		c0.007,0.319,0.772,32.303,4.607,63.817c0.5,4.112-2.428,7.851-6.539,8.352c-0.308,0.037-0.613,0.056-0.916,0.056
		C49.812,176.789,46.577,173.998,46.114,170.194z M56.111,197.467c-3.983,0-7.212-3.229-7.212-7.212s3.229-7.212,7.212-7.212
		s7.212,3.229,7.212,7.212S60.095,197.467,56.111,197.467z"/>
</g>
</svg>